<svg width="260" height="260" viewBox="0 0 260 260" fill="none" xmlns="http://www.w3.org/2000/svg" role="img" aria-labelledby="title desc">
  <title id="title">기쁨교회 logo</title>
  <desc id="desc">기쁨교회 logo with cross, alpha omega, and blue wave motif.</desc>
  <rect width="260" height="260" fill="white"/>
  <path d="M70 56C92 39 126 31 158 35C173 37 187 42 199 50" stroke="#80CDD0" stroke-width="8" stroke-linecap="round" stroke-dasharray="2 14"/>
  <path d="M206 78C220 108 224 149 203 181C181 214 136 225 96 211C61 199 39 169 41 137C42 116 55 100 75 102C95 104 102 125 111 141C121 159 136 172 159 167C184 162 198 139 207 111" stroke="#8DD9DE" stroke-width="3.5" stroke-linecap="round" opacity="0.85"/>
  <path d="M37 182C65 149 92 145 119 158C143 169 166 185 215 159" stroke="#8DD9DE" stroke-width="8" stroke-linecap="round" opacity="0.45"/>
  <path d="M43 193C72 164 102 163 132 178C159 192 184 197 218 176" stroke="#72CDD5" stroke-width="3.5" stroke-linecap="round" opacity="0.82"/>
  <path d="M88 91C122 111 160 111 204 91" stroke="#2E1A10" stroke-width="4.5" stroke-linecap="round" opacity="0.9"/>
  <path d="M94 72L103 182" stroke="#4A2918" stroke-width="8" stroke-linecap="round"/>
  <path d="M77 101L122 91" stroke="#4A2918" stroke-width="8" stroke-linecap="round"/>
  <path d="M101 73L109 182" stroke="#8B5A3C" stroke-width="2" stroke-linecap="round" opacity="0.75"/>
  <text x="130" y="154" text-anchor="middle" font-family="Georgia, 'Times New Roman', serif" font-size="27" font-weight="700" fill="#6B3B24">AΩ</text>
  <path d="M108 160C119 172 141 172 153 160" stroke="#8DD9DE" stroke-width="2" stroke-linecap="round" opacity="0.75"/>
</svg>
